<svg xmlns="http://www.w3.org/2000/svg" width="50" height="50" viewBox="0 0 50 50">
  <path id="Subtraction_3" data-name="Subtraction 3" d="M44-3579H6a6.006,6.006,0,0,1-6-6v-38a6.007,6.007,0,0,1,6-6H44a6.007,6.007,0,0,1,6,6v38A6.006,6.006,0,0,1,44-3579Zm-12.587-35a2.558,2.558,0,0,0-1.97.911l-6.273,7.5a2.431,2.431,0,0,0,0,3.123l6.322,7.557a2.56,2.56,0,0,0,1.971.91,2.59,2.59,0,0,0,1.6-.556,2.44,2.44,0,0,0,.923-1.674,2.412,2.412,0,0,0-.557-1.8l-5.016-5.994,4.966-5.936a2.415,2.415,0,0,0,.558-1.808,2.438,2.438,0,0,0-.924-1.672A2.59,2.59,0,0,0,31.413-3614Zm-8.6,0a2.555,2.555,0,0,0-1.97.911l-6.271,7.5a2.431,2.431,0,0,0,0,3.125l6.322,7.555a2.559,2.559,0,0,0,1.97.912,2.6,2.6,0,0,0,1.6-.556,2.438,2.438,0,0,0,.922-1.672,2.415,2.415,0,0,0-.558-1.807l-5.016-5.994,4.965-5.936a2.41,2.41,0,0,0,.559-1.805,2.436,2.436,0,0,0-.924-1.672A2.591,2.591,0,0,0,22.811-3614Z" transform="translate(0 3629)" fill="#00ffcb"/>
</svg>
